<svg id="Layer_1" data-name="Layer 1" xmlns="http://www.w3.org/2000/svg" xmlns:xlink="http://www.w3.org/1999/xlink" viewBox="0 0 692.04 389.3"><defs><linearGradient id="linear-gradient" x1="138.91" y1="254.01" x2="280.22" y2="254.01" gradientTransform="matrix(1 0 0 -1 0 452)" gradientUnits="userSpaceOnUse"><stop offset="0" stop-color="#e9faff" stop-opacity=".9"/><stop offset=".93" stop-color="#7fd2ff" stop-opacity=".1"/></linearGradient><linearGradient id="linear-gradient-2" x1="316.42" y1="254.01" x2="457.72" y2="254.01" xlink:href="#linear-gradient"/><linearGradient id="linear-gradient-3" x1="495.37" y1="252.71" x2="636.68" y2="252.71" xlink:href="#linear-gradient"/><clipPath id="clip-path" transform="translate(-49.64 -40.08)"><path class="cls-1" d="M210.87 293.36a63 63 0 01-63-63v-98.64a195.9 195.9 0 0129.63-.72c16 .83 26.81 3.37 33.39 4.55 14 2.51 34.63 3.51 63-3.83v98.62a63 63 0 01-63 63z"/></clipPath><clipPath id="clip-path-2" transform="translate(-49.64 -40.08)"><path class="cls-1" d="M388.37 293.36a63 63 0 01-63-63v-98.64A195.9 195.9 0 01355 131c16 .83 26.81 3.37 33.39 4.55 14 2.51 34.63 3.51 63-3.83v98.62a63 63 0 01-63 63z"/></clipPath><clipPath id="clip-path-3" transform="translate(-49.64 -40.08)"><path class="cls-1" d="M567.32 294.66a63 63 0 01-63-63V133a195.9 195.9 0 0129.65-.71c16 .83 26.81 3.37 33.39 4.55 14 2.51 34.63 3.51 63-3.83v98.62a63 63 0 01-63 63z"/></clipPath><style>.cls-1,.cls-18,.cls-20{fill:none}.cls-2{fill:#d8d9cb}.cls-14,.cls-21,.cls-22{isolation:isolate}.cls-4{fill:#565656}.cls-7{fill:#dae0e8}.cls-8{fill:#ccd1d6}.cls-9{fill:#f2dcad}.cls-10{fill:#a6aaad}.cls-11{fill:#ef5030}.cls-12{fill:#d1432c}.cls-13,.cls-14{fill:#fff}.cls-14{opacity:.45}.cls-16{fill:#61dbff}.cls-18{stroke:#fff;stroke-linecap:round;stroke-width:10px}.cls-18,.cls-20{stroke-miterlimit:10}.cls-19{opacity:.78}.cls-20{stroke:#000}.cls-22{font-size:5.26px;font-family:Arial}</style></defs><g id="Box"><path class="cls-2" d="M110.3 78.65l33.76-16.93H626.7l44.84 16.93H110.3z" transform="translate(-49.64 -40.08)"/><path class="cls-2" d="M60.66 38.58h561.23v220.96H60.66z"/><path d="M84.19 103.2l40.35-21.43h528l53.54 21.43H84.19z" transform="translate(-49.64 -40.08)" style="isolation:isolate" opacity=".38" fill="#fafeff"/><path class="cls-4" d="M34.55 289.61L0 336.55h692.04l-35.6-43.25-621.89-3.69z"/><path style="isolation:isolate" opacity=".5" fill="#fafeff" d="M31.37 61.17h621.89v263.4H31.37z"/><path class="cls-4" d="M0 336.55l2.11 49.06 689.93 3.69v-52.75"/><path d="M146.9 92.49h124.37a5 5 0 015 5v4.83H141.9v-4.83a5 5 0 015-5zm177.17 0h124.37a5 5 0 015 5v4.83H319.07v-4.83a5 5 0 015-5zm179.77 2.05H628.2a5 5 0 015 5v4.83H498.84v-4.83a5 5 0 015-5z" transform="translate(-49.64 -40.08)" fill="#707272"/></g><path class="cls-7" d="M181.62 49.59c-.2-5.27-4.18-9.49-9.09-9.52s-8.94 4.14-9.2 9.41l-.6 101.58 18.27.12.6-101.58z" transform="translate(-49.64 -40.08)"/><path class="cls-7" d="M171.87 151.12l-9.16-.05v3.84c0 1.03 1.29 2.88 3.94 4.37 1.07.6 1.15 7.29 1.15 7.29s0 4.74-.07 12.72 3.94 7.59 3.94 7.59 4 .44 4-7.54.08-12.72.08-12.72.16-6.69 1.24-7.28c2.67-1.46 4-3.29 4-4.33v-3.84l-9.16-.05z" transform="translate(-49.64 -40.08)"/><path class="cls-8" d="M181.62 49.59c-.2-5.27-4.18-9.49-9.09-9.52a8.52 8.52 0 00-1.37.1 9.68 9.68 0 017.72 9.4l-.6 101.58v3.84c0 1.03-1.32 2.87-4 4.33-1.08.59-1.24 7.28-1.24 7.28s0 4.74-.08 12.72c0 4.84-1.5 6.58-2.66 7.21a2.56 2.56 0 001.36.35s4 .44 4-7.54.08-12.72.08-12.72.16-6.69 1.24-7.28c2.67-1.46 4-3.29 4-4.33v-3.84l.6-101.58z" transform="translate(-49.64 -40.08)"/><path class="cls-9" d="M176.42 155.3l-9.46-.06.62-104.63a2.54 2.54 0 012.55-2.52h4.38a2.54 2.54 0 012.49 2.57l-.58 104.64z" transform="translate(-49.64 -40.08)"/><path class="cls-10" transform="rotate(-89.45 126.649 157.59)" d="M171.39 149.91h.6v5.32h-.6z"/><path class="cls-10" transform="rotate(-89.45 126.655 155.837)" d="M171.4 148.15h.6v5.32h-.6z"/><path class="cls-10" transform="rotate(-89.45 126.672 154.083)" d="M171.41 146.4h.6v5.32h-.6z"/><path class="cls-10" transform="rotate(-89.45 126.679 152.33)" d="M171.42 144.65h.6v5.32h-.6z"/><path class="cls-10" transform="rotate(-89.45 126.702 148.823)" d="M171.45 141.14h.6v5.32h-.6z"/><path class="cls-10" transform="rotate(-89.45 126.714 147.064)" d="M171.46 139.38h.6v5.32h-.6z"/><path class="cls-10" transform="rotate(-89.45 126.725 145.315)" d="M171.47 137.63h.6v5.32h-.6z"/><path class="cls-10" transform="rotate(-89.45 126.737 143.557)" d="M171.48 135.88h.6v5.32h-.6z"/><path class="cls-10" transform="rotate(-89.45 126.69 150.571)" d="M171.44 141.19h.6v8.72h-.6z"/><path class="cls-10" transform="rotate(-89.4 126.69 159.343)" d="M171.38 149.97h.6v8.72h-.6z"/><path class="cls-10" transform="rotate(-89.45 126.76 140.05)" d="M171.5 132.37h.6v5.32h-.6z"/><path class="cls-10" transform="rotate(-89.45 126.767 138.296)" d="M171.51 130.61h.6v5.32h-.6z"/><path class="cls-10" transform="rotate(-89.45 126.784 136.543)" d="M171.53 128.86h.6v5.32h-.6z"/><path class="cls-10" transform="rotate(-89.45 126.79 134.79)" d="M171.54 127.11h.6v5.32h-.6z"/><path class="cls-10" transform="rotate(-89.45 126.814 131.282)" d="M171.56 123.6h.6v5.32h-.6z"/><path class="cls-10" transform="rotate(-89.45 126.825 129.524)" d="M171.57 121.84h.6v5.32h-.6z"/><path class="cls-10" transform="rotate(-89.45 126.837 127.775)" d="M171.58 120.09h.6v5.32h-.6z"/><path class="cls-10" transform="rotate(-89.45 126.849 126.017)" d="M171.59 118.34h.6v5.32h-.6z"/><path class="cls-10" transform="rotate(-89.45 126.802 133.03)" d="M171.55 123.65h.6v8.72h-.6z"/><path class="cls-10" transform="rotate(-89.45 126.744 141.803)" d="M171.49 132.43h.6v8.72h-.6z"/><path class="cls-10" transform="rotate(-89.45 126.872 122.51)" d="M171.62 114.83h.6v5.32h-.6z"/><path class="cls-10" transform="rotate(-89.45 126.879 120.756)" d="M171.63 113.07h.6v5.32h-.6z"/><path class="cls-10" transform="rotate(-89.45 126.895 119.003)" d="M171.64 111.32h.6v5.32h-.6z"/><path class="cls-10" transform="rotate(-89.45 126.902 117.25)" d="M171.65 109.57h.6v5.32h-.6z"/><path class="cls-10" transform="rotate(-89.45 126.925 113.742)" d="M171.67 106.06h.6v5.32h-.6z"/><path class="cls-10" transform="rotate(-89.45 126.937 111.984)" d="M171.68 104.3h.6v5.32h-.6z"/><path class="cls-10" transform="rotate(-89.45 126.949 110.235)" d="M171.69 102.55h.6v5.32h-.6z"/><path class="cls-10" transform="rotate(-89.45 126.96 108.477)" d="M171.71 100.8h.6v5.32h-.6z"/><path class="cls-10" transform="rotate(-89.45 126.914 115.49)" d="M171.66 106.12h.6v8.72h-.6z"/><path class="cls-10" transform="rotate(-89.4 126.906 124.257)" d="M171.6 114.89h.6v8.72h-.6z"/><path class="cls-10" transform="rotate(-89.45 126.984 104.97)" d="M171.73 97.29h.6v5.32h-.6z"/><path class="cls-10" transform="rotate(-89.45 126.99 103.216)" d="M171.74 95.53h.6v5.32h-.6z"/><path class="cls-10" transform="rotate(-89.45 127.002 101.458)" d="M171.75 93.78h.6v5.32h-.6z"/><path class="cls-10" transform="rotate(-89.45 127.014 99.71)" d="M171.76 92.03h.6v5.32h-.6z"/><path class="cls-10" transform="rotate(-89.45 127.037 96.202)" d="M171.78 88.52h.6v5.32h-.6z"/><path class="cls-10" transform="rotate(-89.45 127.049 94.444)" d="M171.79 86.76h.6v5.32h-.6z"/><path class="cls-10" transform="rotate(-89.45 127.055 92.69)" d="M171.81 85.01h.6v5.32h-.6z"/><path class="cls-10" transform="rotate(-89.45 127.072 90.937)" d="M171.82 83.26h.6v5.32h-.6z"/><path class="cls-10" transform="rotate(-89.45 127.025 97.95)" d="M171.77 88.57h.6v8.72h-.6z"/><path class="cls-10" transform="rotate(-89.45 126.967 106.723)" d="M171.72 97.34h.6v8.72h-.6z"/><path class="cls-10" transform="rotate(-89.45 127.096 87.43)" d="M171.84 79.75h.6v5.32h-.6z"/><path class="cls-10" transform="rotate(-89.45 127.102 85.676)" d="M171.85 77.99h.6v5.32h-.6z"/><path class="cls-10" transform="rotate(-89.45 127.114 83.918)" d="M171.86 76.24h.6v5.32h-.6z"/><path class="cls-10" transform="rotate(-89.45 127.126 82.169)" d="M171.87 74.49h.6v5.32h-.6z"/><path class="cls-10" transform="rotate(-89.45 127.149 78.662)" d="M171.9 70.98h.6v5.32h-.6z"/><path class="cls-10" transform="rotate(-89.45 127.16 76.903)" d="M171.91 69.22h.6v5.32h-.6z"/><path class="cls-10" transform="rotate(-89.45 127.167 75.15)" d="M171.92 67.47h.6v5.32h-.6z"/><path class="cls-10" transform="rotate(-89.45 127.184 73.396)" d="M171.93 65.72h.6v5.32h-.6z"/><path class="cls-10" transform="rotate(-89.45 127.137 80.41)" d="M171.88 71.04h.6v8.72h-.6z"/><path class="cls-10" transform="rotate(-89.45 127.079 89.183)" d="M171.83 79.81h.6v8.72h-.6z"/><path class="cls-10" transform="rotate(-89.45 127.207 69.89)" d="M171.95 62.21h.6v5.32h-.6z"/><path class="cls-10" transform="rotate(-89.45 127.214 68.136)" d="M171.96 60.45h.6v5.32h-.6z"/><path class="cls-10" transform="rotate(-89.45 127.226 66.377)" d="M171.97 58.7h.6v5.32h-.6z"/><path class="cls-10" transform="rotate(-89.45 127.237 64.629)" d="M171.99 56.95h.6v5.32h-.6z"/><path class="cls-10" transform="rotate(-89.45 127.26 61.122)" d="M172.01 53.44h.6v5.32h-.6z"/><path class="cls-10" transform="rotate(-89.45 127.272 59.363)" d="M172.02 51.68h.6V57h-.6z"/><path class="cls-10" transform="rotate(-89.45 127.279 57.61)" d="M172.03 49.93h.6v5.32h-.6z"/><path class="cls-10" transform="rotate(-89.45 127.296 55.856)" d="M172.04 48.18h.6v5.32h-.6z"/><path class="cls-10" transform="rotate(-89.45 127.249 62.87)" d="M172 53.5h.6v8.72h-.6z"/><path class="cls-10" transform="rotate(-89.45 127.19 71.643)" d="M171.94 62.27h.6v8.72h-.6z"/><path class="cls-11" d="M173.83 155.5h-4.12s-.21 21.79.21 24.9c.36 2.63 3.28 3.06 3.7 0s.21-24.91.21-24.91z" transform="translate(-49.64 -40.08)"/><path class="cls-12" d="M173.83 155.5h-1.21c0 3.86.16 21.38-.22 24.16-.21 1.57-1.1 2.22-1.95 2.12 1 1.28 2.84 1 3.17-1.37.43-3.12.21-24.91.21-24.91z" transform="translate(-49.64 -40.08)"/><path class="cls-11" d="M123.04 121.99l-1.22-.02.02-100.67 1.21.02-.01 100.67z"/><path class="cls-13" d="M165.4 47.79a71.14 71.14 0 00-.66 7.2 9.91 9.91 0 00.31 3.54.7.7 0 00.17.3.52.52 0 00.73-.17 1.51 1.51 0 00.16-.83 68.89 68.89 0 01.45-7.74 7.57 7.57 0 011.16-3.75 4.74 4.74 0 014-1.74 4.23 4.23 0 001.16 0 1 1 0 00.79-.76 1.28 1.28 0 00-1.32-1.07 6.13 6.13 0 00-7 5zm-.4 14.5a43.61 43.61 0 00.41 4.86c0 .33.25.75.56.65a.52.52 0 00.27-.33 5.08 5.08 0 00.23-2c0-1 .34-3.29-.2-4.09-.74-1.1-1.29.12-1.27.91z" transform="translate(-49.64 -40.08)"/><path class="cls-14" d="M170.33 161.87c0 .78.09 1.55.14 2.32.32 4.48-.29 9-.16 13.47a5 5 0 00.4 2.12.42.42 0 00.81-.2 4.07 4.07 0 00.13-1.1l.35-15.35a2.64 2.64 0 00-.12-1.07c-.28-.69-1.56-1.42-1.55-.18z" transform="translate(-49.64 -40.08)"/><g clip-path="url(#clip-path)"><path class="cls-16" d="M210.87 320.36a63 63 0 01-63-63v-98.64a195.9 195.9 0 0129.63-.72c16 .83 26.81 3.37 33.39 4.55 14 2.51 34.63 3.51 63-3.83v98.62a63 63 0 01-63 63z" transform="translate(-49.64 -40.08)"/></g><path d="M273.75 102.87v-.26H147.46a8.84 8.84 0 00-8.46 6.29 2 2 0 001.89 2.56h6.83v118.88a63 63 0 0063 63 63 63 0 0063-63V111.45h4.49a2 2 0 001.88-2.57 8.85 8.85 0 00-6.38-6z" transform="translate(-49.64 -40.08)" fill="url(#linear-gradient)"/><path class="cls-18" d="M261.63 239.9s-6.76 24.43-29.1 34.11" transform="translate(-49.64 -40.08)"/><g class="cls-19"><path class="cls-20" d="M105.87 179.96l36.02-.03m-36.02-7.52l28.62-.03m-28.62-6.52l36.02-.03m-36.02-7.52l28.62-.03m-28.62-8.95l36.02-.03m-36.02-7.52l28.62-.03m-28.62-7.52l36.02-.04m-36.02-7.52l28.62-.03m-28.62-7.52l36.02-.03m-36.02 67.04l28.62-.03"/><g class="cls-21"><text class="cls-22" transform="translate(142.72 181.38)">600</text></g><g class="cls-21"><text class="cls-22" transform="translate(142.94 167.78)">700</text></g><g class="cls-21"><text class="cls-22" transform="translate(143.12 150.59)">800</text></g><g class="cls-21"><text class="cls-22" transform="translate(143.32 135.69)">900</text></g><g class="cls-21"><text class="cls-22" transform="translate(143.53 120.49)">1000ml</text></g></g><path class="cls-7" d="M359.13 49.59c-.2-5.27-4.18-9.49-9.09-9.52s-8.94 4.14-9.2 9.41l-.6 101.58 18.31.11.6-101.58zm-9.76 101.53l-9.16-.05v3.84c0 1.03 1.29 2.88 3.94 4.37 1.07.6 1.15 7.29 1.15 7.29s0 4.74-.07 12.72 3.94 7.59 3.94 7.59 4 .44 4-7.54.08-12.72.08-12.72.16-6.69 1.24-7.28c2.67-1.46 4-3.29 4-4.33v-3.84l-9.16-.05z" transform="translate(-49.64 -40.08)"/><path class="cls-8" d="M359.13 49.59c-.2-5.27-4.18-9.49-9.09-9.52a8.52 8.52 0 00-1.37.1 9.68 9.68 0 017.72 9.4l-.6 101.58v3.84c0 1.03-1.32 2.87-4 4.33-1.08.59-1.24 7.28-1.24 7.28s0 4.74-.08 12.72c0 4.84-1.5 6.58-2.66 7.21a2.56 2.56 0 001.36.35s4 .44 4-7.54.08-12.72.08-12.72.16-6.69 1.24-7.28c2.67-1.46 4-3.29 4-4.33v-3.84l.6-101.58z" transform="translate(-49.64 -40.08)"/><path class="cls-9" d="M353.93 155.3l-9.46-.06.62-104.63a2.54 2.54 0 012.55-2.52h4.38a2.54 2.54 0 012.52 2.55l-.61 104.66z" transform="translate(-49.64 -40.08)"/><path class="cls-10" transform="rotate(-89.45 304.15 157.587)" d="M348.89 149.91h.6v5.32h-.6z"/><path class="cls-10" transform="rotate(-89.45 304.166 155.834)" d="M348.9 148.15h.6v5.32h-.6z"/><path class="cls-10" transform="rotate(-89.45 304.173 154.08)" d="M348.92 146.4h.6v5.32h-.6z"/><path class="cls-10" transform="rotate(-89.45 304.185 152.322)" d="M348.93 144.65h.6v5.32h-.6z"/><path class="cls-10" transform="rotate(-89.45 304.208 148.815)" d="M348.95 141.14h.6v5.32h-.6z"/><path class="cls-10" transform="rotate(-89.45 304.22 147.066)" d="M348.96 139.38h.6v5.32h-.6z"/><path class="cls-10" transform="rotate(-89.45 304.231 145.308)" d="M348.97 137.63h.6v5.32h-.6z"/><path class="cls-10" transform="rotate(-89.45 304.238 143.554)" d="M348.98 135.88h.6v5.32h-.6z"/><path class="cls-10" transform="rotate(-89.45 304.196 150.573)" d="M348.94 141.19h.6v8.72h-.6z"/><path class="cls-10" transform="rotate(-89.45 304.143 159.34)" d="M348.88 149.97h.6v8.72h-.6z"/><path class="cls-10" transform="rotate(-89.45 304.261 140.047)" d="M349 132.37h.6v5.32h-.6z"/><path class="cls-10" transform="rotate(-89.45 304.273 138.289)" d="M349.02 130.61h.6v5.32h-.6z"/><path class="cls-10" transform="rotate(-89.45 304.285 136.54)" d="M349.03 128.86h.6v5.32h-.6z"/><path class="cls-10" transform="rotate(-89.45 304.296 134.782)" d="M349.04 127.11h.6v5.32h-.6z"/><path class="cls-10" transform="rotate(-89.45 304.32 131.274)" d="M349.06 123.6h.6v5.32h-.6z"/><path class="cls-10" transform="rotate(-89.45 304.326 129.521)" d="M349.07 121.84h.6v5.32h-.6z"/><path class="cls-10" transform="rotate(-89.45 304.343 127.767)" d="M349.08 120.09h.6v5.32h-.6z"/><path class="cls-10" transform="rotate(-89.45 304.35 126.014)" d="M349.09 118.34h.6v5.32h-.6z"/><path class="cls-10" transform="rotate(-89.45 304.308 133.033)" d="M349.05 123.65h.6v8.72h-.6z"/><path class="cls-10" transform="rotate(-89.45 304.255 141.8)" d="M348.99 132.43h.6v8.72h-.6z"/><path class="cls-10" transform="rotate(-89.45 304.373 122.507)" d="M349.12 114.83h.6v5.32h-.6z"/><path class="cls-10" transform="rotate(-89.45 304.385 120.748)" d="M349.13 113.07h.6v5.32h-.6z"/><path class="cls-10" transform="rotate(-89.45 304.396 119)" d="M349.14 111.32h.6v5.32h-.6z"/><path class="cls-10" transform="rotate(-89.45 304.408 117.241)" d="M349.15 109.57h.6v5.32h-.6z"/><path class="cls-10" transform="rotate(-89.45 304.431 113.734)" d="M349.17 106.06h.6v5.32h-.6z"/><path class="cls-10" transform="rotate(-89.45 304.438 111.98)" d="M349.18 104.3h.6v5.32h-.6z"/><path class="cls-10" transform="rotate(-89.45 304.455 110.227)" d="M349.2 102.55h.6v5.32h-.6z"/><path class="cls-10" transform="rotate(-89.45 304.461 108.474)" d="M349.21 100.8h.6v5.32h-.6z"/><path class="cls-10" transform="rotate(-89.45 304.42 115.493)" d="M349.16 106.11h.6v8.72h-.6z"/><path class="cls-10" transform="rotate(-89.4 304.448 124.214)" d="M349.11 114.89h.6v8.72h-.6z"/><path class="cls-10" transform="rotate(-89.45 304.485 104.967)" d="M349.23 97.29h.6v5.32h-.6z"/><path class="cls-10" transform="rotate(-89.45 304.501 103.213)" d="M349.24 95.53h.6v5.32h-.6z"/><path class="cls-10" transform="rotate(-89.45 304.508 101.46)" d="M349.25 93.78h.6v5.32h-.6z"/><path class="cls-10" transform="rotate(-89.45 304.52 99.701)" d="M349.26 92.03h.6v5.32h-.6z"/><path class="cls-10" transform="rotate(-89.45 304.543 96.194)" d="M349.29 88.52h.6v5.32h-.6z"/><path class="cls-10" transform="rotate(-89.45 304.55 94.44)" d="M349.3 86.76h.6v5.32h-.6z"/><path class="cls-10" transform="rotate(-89.45 304.567 92.687)" d="M349.31 85.01h.6v5.32h-.6z"/><path class="cls-10" transform="rotate(-89.45 304.573 90.934)" d="M349.32 83.26h.6v5.32h-.6z"/><path class="cls-10" transform="rotate(-89.45 304.537 97.948)" d="M349.27 88.57h.6v8.72h-.6z"/><path class="cls-10" transform="rotate(-89.45 304.478 106.72)" d="M349.22 97.34h.6v8.72h-.6z"/><path class="cls-10" transform="rotate(-89.45 304.597 87.427)" d="M349.34 79.75h.6v5.32h-.6z"/><path class="cls-10" transform="rotate(-89.45 304.613 85.673)" d="M349.35 77.99h.6v5.32h-.6z"/><path class="cls-10" transform="rotate(-89.45 304.62 83.92)" d="M349.36 76.24h.6v5.32h-.6z"/><path class="cls-10" transform="rotate(-89.45 304.632 82.161)" d="M349.37 74.49h.6v5.32h-.6z"/><path class="cls-10" transform="rotate(-89.45 304.655 78.654)" d="M349.4 70.98h.6v5.32h-.6z"/><path class="cls-10" transform="rotate(-89.45 304.662 76.9)" d="M349.41 69.22h.6v5.32h-.6z"/><path class="cls-10" transform="rotate(-89.45 304.678 75.147)" d="M349.42 67.47h.6v5.32h-.6z"/><path class="cls-10" transform="rotate(-89.45 304.685 73.394)" d="M349.43 65.72h.6v5.32h-.6z"/><path class="cls-10" transform="rotate(-89.45 304.648 80.408)" d="M349.39 71.03h.6v8.72h-.6z"/><path class="cls-10" transform="rotate(-89.45 304.59 89.18)" d="M349.33 79.8h.6v8.72h-.6z"/><path class="cls-10" transform="rotate(-89.45 304.708 69.887)" d="M349.45 62.21h.6v5.32h-.6z"/><path class="cls-10" transform="rotate(-89.45 304.72 68.128)" d="M349.46 60.45h.6v5.32h-.6z"/><path class="cls-10" transform="rotate(-89.45 304.732 66.38)" d="M349.48 58.7h.6v5.32h-.6z"/><path class="cls-10" transform="rotate(-89.45 304.743 64.621)" d="M349.49 56.95h.6v5.32h-.6z"/><path class="cls-10" transform="rotate(-89.45 304.762 61.119)" d="M349.51 53.44h.6v5.32h-.6z"/><path class="cls-10" transform="rotate(-89.45 304.773 59.36)" d="M349.52 51.68h.6V57h-.6z"/><path class="cls-10" transform="rotate(-89.45 304.785 57.612)" d="M349.53 49.93h.6v5.32h-.6z"/><path class="cls-10" transform="rotate(-89.45 304.797 55.853)" d="M349.54 48.18h.6v5.32h-.6z"/><path class="cls-10" transform="rotate(-89.45 304.76 62.867)" d="M349.5 53.49h.6v8.72h-.6z"/><path class="cls-10" transform="rotate(-89.45 304.702 71.64)" d="M349.44 62.27h.6v8.72h-.6z"/><path class="cls-11" d="M351.33 155.5h-4.12s-.21 21.79.21 24.9c.36 2.63 3.28 3.06 3.7 0s.21-24.91.21-24.91z" transform="translate(-49.64 -40.08)"/><path class="cls-12" d="M351.33 155.5h-1.21c0 3.86.16 21.38-.22 24.16-.21 1.57-1.1 2.22-1.95 2.12 1 1.28 2.84 1 3.17-1.37.43-3.12.21-24.91.21-24.91z" transform="translate(-49.64 -40.08)"/><path class="cls-11" d="M300.54 121.99l-1.22-.02.02-100.67 1.22.02-.02 100.67z"/><path class="cls-13" d="M342.9 47.79a71.14 71.14 0 00-.66 7.2 9.91 9.91 0 00.31 3.54.7.7 0 00.17.3.52.52 0 00.73-.17 1.51 1.51 0 00.16-.83 68.9 68.9 0 01.45-7.74 7.57 7.57 0 011.16-3.75 4.74 4.74 0 014-1.74 4.23 4.23 0 001.16 0 1 1 0 00.79-.76 1.27 1.27 0 00-1.32-1.07 6.13 6.13 0 00-6.95 5.02zm-.4 14.5a43.6 43.6 0 00.41 4.86c0 .33.25.75.56.65a.52.52 0 00.27-.33 5.09 5.09 0 00.23-2c0-1 .34-3.29-.2-4.09-.74-1.1-1.29.12-1.27.91z" transform="translate(-49.64 -40.08)"/><path class="cls-14" d="M347.83 161.87c0 .78.09 1.55.14 2.32.32 4.48-.29 9-.16 13.47a5 5 0 00.4 2.12.42.42 0 00.81-.2 4.07 4.07 0 00.13-1.1l.36-15.36a2.64 2.64 0 00-.12-1.07c-.28-.69-1.56-1.42-1.55-.18z" transform="translate(-49.64 -40.08)"/><g clip-path="url(#clip-path-2)"><path class="cls-16" d="M388.37 320.36a63 63 0 01-63-63v-98.64A195.9 195.9 0 01355 158c16 .83 26.81 3.37 33.39 4.55 14 2.51 34.63 3.51 63-3.83v98.62a63 63 0 01-63 63z" transform="translate(-49.64 -40.08)"/></g><path d="M451.26 102.87v-.26H325a8.84 8.84 0 00-8.46 6.28 2 2 0 001.89 2.56h6.83v118.89a63 63 0 0063 63 63 63 0 0063-63V111.45h4.49a2 2 0 001.88-2.57 8.85 8.85 0 00-6.38-6z" transform="translate(-49.64 -40.08)" fill="url(#linear-gradient-2)"/><path class="cls-18" d="M439.13 239.9S432.38 264.33 410 274" transform="translate(-49.64 -40.08)"/><g class="cls-19"><path class="cls-20" d="M283.37 179.96l36.02-.03m-36.02-7.52l28.63-.03m-28.63-6.52l36.02-.03m-36.02-7.52l28.63-.03m-28.63-8.95l36.02-.03m-36.02-7.52l28.63-.03m-28.63-7.52l36.02-.04m-36.02-7.52l28.63-.03m-28.63-7.52l36.02-.03m-36.02 67.04l28.63-.03"/><g class="cls-21"><text class="cls-22" transform="translate(320.22 181.38)">600</text></g><g class="cls-21"><text class="cls-22" transform="translate(320.44 167.78)">700</text></g><g class="cls-21"><text class="cls-22" transform="translate(320.62 150.59)">800</text></g><g class="cls-21"><text class="cls-22" transform="translate(320.82 135.69)">900</text></g><g class="cls-21"><text class="cls-22" transform="translate(321.03 120.49)">1000ml</text></g></g><path class="cls-7" d="M538.08 50.89c-.2-5.27-4.18-9.49-9.09-9.52s-8.94 4.14-9.2 9.41l-.6 101.58 18.31.11.6-101.58zm-9.75 101.53l-9.16-.05v3.84c0 1.03 1.29 2.88 3.94 4.37 1.07.6 1.15 7.29 1.15 7.29s0 4.74-.07 12.72 3.94 7.59 3.94 7.59 4 .44 4-7.54.08-12.72.08-12.72.16-6.69 1.24-7.28c2.67-1.46 4-3.29 4-4.33v-3.84l-9.16-.05z" transform="translate(-49.64 -40.08)"/><path class="cls-8" d="M538.08 50.89c-.2-5.27-4.18-9.49-9.09-9.52a8.52 8.52 0 00-1.37.1 9.68 9.68 0 017.72 9.4l-.6 101.58v3.84c0 1.03-1.32 2.87-4 4.33-1.08.59-1.24 7.28-1.24 7.28s0 4.74-.08 12.72c0 4.84-1.5 6.58-2.66 7.21a2.56 2.56 0 001.36.35s4 .44 4-7.54.08-12.72.08-12.72.16-6.69 1.24-7.28c2.67-1.46 4-3.29 4-4.33v-3.84l.6-101.58z" transform="translate(-49.64 -40.08)"/><path class="cls-9" d="M532.88 156.59l-9.46-.06L524 51.9a2.54 2.54 0 012.55-2.52h4.38a2.54 2.54 0 012.58 2.62l-.62 104.63z" transform="translate(-49.64 -40.08)"/><path class="cls-10" transform="rotate(-89.45 483.109 158.879)" d="M527.85 151.2h.6v5.32h-.6z"/><path class="cls-10" transform="rotate(-89.45 483.125 157.125)" d="M527.86 149.45h.6v5.32h-.6z"/><path class="cls-10" transform="rotate(-89.4 483.253 155.29)" d="M527.87 147.7h.6v5.32h-.6z"/><path class="cls-10" transform="rotate(-89.45 483.149 153.618)" d="M527.88 145.94h.6v5.32h-.6z"/><path class="cls-10" transform="rotate(-89.45 483.167 150.106)" d="M527.91 142.43h.6v5.32h-.6z"/><path class="cls-10" transform="rotate(-89.4 483.298 148.275)" d="M527.92 140.68h.6V146h-.6z"/><path class="cls-10" transform="rotate(-89.45 483.19 146.599)" d="M527.93 138.93h.6v5.32h-.6z"/><path class="cls-10" transform="rotate(-89.45 483.202 144.85)" d="M527.94 137.17h.6v5.32h-.6z"/><path class="cls-10" transform="rotate(-89.45 483.155 151.865)" d="M527.89 142.49h.6v8.72h-.6z"/><path class="cls-10" transform="rotate(-89.45 483.102 160.632)" d="M527.84 151.26h.6v8.72h-.6z"/><path class="cls-10" transform="rotate(-89.45 483.22 141.338)" d="M527.96 133.66h.6v5.32h-.6z"/><path class="cls-10" transform="rotate(-89.45 483.237 139.585)" d="M527.97 131.91h.6v5.32h-.6z"/><path class="cls-10" transform="rotate(-89.45 483.244 137.831)" d="M527.98 130.16h.6v5.32h-.6z"/><path class="cls-10" transform="rotate(-89.4 483.377 135.993)" d="M527.99 128.4h.6v5.32h-.6z"/><path class="cls-10" transform="rotate(-89.45 483.279 132.566)" d="M528.02 124.89h.6v5.32h-.6z"/><path class="cls-10" transform="rotate(-89.45 483.29 130.817)" d="M528.03 123.14h.6v5.32h-.6z"/><path class="cls-10" transform="rotate(-89.45 483.302 129.059)" d="M528.04 121.39h.6v5.32h-.6z"/><path class="cls-10" transform="rotate(-89.45 483.314 127.31)" d="M528.05 119.63h.6v5.32h-.6z"/><path class="cls-10" transform="rotate(-89.45 483.272 134.32)" d="M528.01 124.95h.6v8.72h-.6z"/><path class="cls-10" transform="rotate(-89.45 483.214 143.092)" d="M527.95 133.72h.6v8.72h-.6z"/><path class="cls-10" transform="rotate(-89.45 483.332 123.798)" d="M528.07 116.13h.6v5.32h-.6z"/><path class="cls-10" transform="rotate(-89.45 483.349 122.045)" d="M528.08 114.37h.6v5.32h-.6z"/><path class="cls-10" transform="rotate(-89.45 483.356 120.291)" d="M528.1 112.62h.6v5.32h-.6z"/><path class="cls-10" transform="rotate(-89.45 483.372 118.538)" d="M528.11 110.86h.6v5.32h-.6z"/><path class="cls-10" transform="rotate(-89.45 483.39 115.026)" d="M528.13 107.35h.6v5.32h-.6z"/><path class="cls-10" transform="rotate(-89.45 483.402 113.277)" d="M528.14 105.6h.6v5.32h-.6z"/><path class="cls-10" transform="rotate(-89.45 483.414 111.519)" d="M528.15 103.85h.6v5.32h-.6z"/><path class="cls-10" transform="rotate(-89.45 483.42 109.765)" d="M528.16 102.09h.6v5.32h-.6z"/><path class="cls-10" transform="rotate(-89.45 483.384 116.78)" d="M528.12 107.41h.6v8.72h-.6z"/><path class="cls-10" transform="rotate(-89.45 483.326 125.552)" d="M528.06 116.18h.6v8.72h-.6z"/><path class="cls-10" transform="rotate(-89.45 483.449 106.253)" d="M528.19 98.59h.6v5.32h-.6z"/><path class="cls-10" transform="rotate(-89.45 483.46 104.505)" d="M528.2 96.83h.6v5.32h-.6z"/><path class="cls-10" transform="rotate(-89.45 483.467 102.751)" d="M528.21 95.08h.6v5.32h-.6z"/><path class="cls-10" transform="rotate(-89.45 483.479 100.993)" d="M528.22 93.32h.6v5.32h-.6z"/><path class="cls-10" transform="rotate(-89.4 483.61 97.394)" d="M528.24 89.82h.6v5.32h-.6z"/><path class="cls-10" transform="rotate(-89.45 483.514 95.737)" d="M528.25 88.06h.6v5.32h-.6z"/><path class="cls-10" transform="rotate(-89.45 483.526 93.979)" d="M528.26 86.31h.6v5.32h-.6z"/><path class="cls-10" transform="rotate(-89.4 483.649 92.132)" d="M528.28 84.55h.6v5.32h-.6z"/><path class="cls-10" transform="rotate(-89.45 483.496 99.24)" d="M528.23 89.87h.6v8.72h-.6z"/><path class="cls-10" transform="rotate(-89.45 483.437 108.012)" d="M528.17 98.64h.6v8.72h-.6z"/><path class="cls-10" transform="rotate(-89.45 483.56 88.713)" d="M528.3 81.05h.6v5.32h-.6z"/><path class="cls-10" transform="rotate(-89.45 483.572 86.965)" d="M528.31 79.29h.6v5.32h-.6z"/><path class="cls-10" transform="rotate(-89.45 483.58 85.211)" d="M528.32 77.54h.6v5.32h-.6z"/><path class="cls-10" transform="rotate(-89.45 483.59 83.453)" d="M528.33 75.78h.6v5.32h-.6z"/><path class="cls-10" transform="rotate(-89.45 483.614 79.946)" d="M528.35 72.28h.6v5.32h-.6z"/><path class="cls-10" transform="rotate(-89.45 483.626 78.197)" d="M528.36 70.52h.6v5.32h-.6z"/><path class="cls-10" transform="rotate(-89.45 483.638 76.439)" d="M528.38 68.77h.6v5.32h-.6z"/><path class="cls-10" transform="rotate(-89.4 483.747 74.59)" d="M528.39 67.01h.6v5.32h-.6z"/><path class="cls-10" transform="rotate(-89.45 483.607 81.699)" d="M528.34 72.33h.6v8.72h-.6z"/><path class="cls-10" transform="rotate(-89.45 483.55 90.472)" d="M528.29 81.1h.6v8.72h-.6z"/><path class="cls-10" transform="rotate(-89.45 483.673 71.173)" d="M528.41 63.51h.6v5.32h-.6z"/><path class="cls-10" transform="rotate(-89.4 483.786 69.328)" d="M528.42 61.75h.6v5.32h-.6z"/><path class="cls-10" transform="rotate(-89.4 483.797 67.569)" d="M528.43 60h.6v5.32h-.6z"/><path class="cls-10" transform="rotate(-89.4 483.808 65.82)" d="M528.44 58.24h.6v5.32h-.6z"/><path class="cls-10" transform="rotate(-89.45 483.72 62.41)" d="M528.47 54.73h.6v5.32h-.6z"/><path class="cls-10" transform="rotate(-89.45 483.738 60.657)" d="M528.48 52.98h.6v5.32h-.6z"/><path class="cls-10" transform="rotate(-89.45 483.744 58.903)" d="M528.49 51.23h.6v5.32h-.6z"/><path class="cls-10" transform="rotate(-89.45 483.756 57.145)" d="M528.5 49.47h.6v5.32h-.6z"/><path class="cls-10" transform="rotate(-89.45 483.72 64.159)" d="M528.45 54.79h.6v8.72h-.6z"/><path class="cls-10" transform="rotate(-89.45 483.66 72.931)" d="M528.4 63.56h.6v8.72h-.6z"/><path class="cls-11" d="M530.29 156.79h-4.12s-.21 21.79.21 24.9c.36 2.63 3.28 3.06 3.7 0s.21-24.9.21-24.9z" transform="translate(-49.64 -40.08)"/><path class="cls-12" d="M530.29 156.79h-1.21c0 3.86.16 21.38-.22 24.16-.21 1.57-1.1 2.22-1.95 2.12 1 1.28 2.84 1 3.17-1.37.43-3.12.21-24.91.21-24.91z" transform="translate(-49.64 -40.08)"/><path class="cls-11" d="M479.5 123.28l-1.22-.01.01-100.68 1.22.02-.01 100.67z"/><path class="cls-13" d="M521.86 49.08a71.13 71.13 0 00-.66 7.2 9.91 9.91 0 00.31 3.54.7.7 0 00.17.3.52.52 0 00.73-.17 1.52 1.52 0 00.16-.83 68.91 68.91 0 01.45-7.74 7.57 7.57 0 011.16-3.75 4.74 4.74 0 014-1.74 4.23 4.23 0 001.16 0 1 1 0 00.79-.76 1.27 1.27 0 00-1.32-1.07 6.13 6.13 0 00-7 5zm-.41 14.51a43.6 43.6 0 00.41 4.86c0 .33.25.75.56.65a.52.52 0 00.27-.33 5.08 5.08 0 00.23-2c0-1 .34-3.29-.2-4.09-.74-1.1-1.29.12-1.27.91z" transform="translate(-49.64 -40.08)"/><path class="cls-14" d="M526.79 163.17c0 .78.09 1.55.14 2.32.32 4.48-.29 9-.16 13.47a5 5 0 00.4 2.12.42.42 0 00.81-.2 4.07 4.07 0 00.13-1.1l.36-15.36a2.64 2.64 0 00-.12-1.07c-.28-.69-1.56-1.42-1.55-.18z" transform="translate(-49.64 -40.08)"/><g clip-path="url(#clip-path-3)"><path class="cls-16" d="M567.32 321.66a63 63 0 01-63-63V160a195.9 195.9 0 0129.65-.71c16 .83 26.81 3.37 33.39 4.55 14 2.51 34.63 3.51 63-3.83v98.62a63 63 0 01-63 63z" transform="translate(-49.64 -40.08)"/></g><path d="M630.21 104.17v-.26H503.92a8.84 8.84 0 00-8.46 6.28 2 2 0 001.89 2.56h6.83v118.89a63 63 0 0063 63 63 63 0 0063-63V112.75h4.49a2 2 0 001.88-2.57 8.85 8.85 0 00-6.38-6z" transform="translate(-49.64 -40.08)" fill="url(#linear-gradient-3)"/><path class="cls-18" d="M618.09 241.19s-6.76 24.43-29.1 34.11" transform="translate(-49.64 -40.08)"/><g class="cls-19"><path class="cls-20" d="M462.33 181.26l36.02-.03m-36.02-7.52l28.62-.03m-28.62-6.52l36.02-.03m-36.02-7.52l28.62-.03m-28.62-8.95l36.02-.03m-36.02-7.52l28.62-.04m-28.62-7.52l36.02-.03m-36.02-7.52l28.62-.03m-28.62-7.52l36.02-.04m-36.02 67.05l28.62-.03"/><g class="cls-21"><text class="cls-22" transform="translate(499.18 182.67)">600</text></g><g class="cls-21"><text class="cls-22" transform="translate(499.4 169.08)">700</text></g><g class="cls-21"><text class="cls-22" transform="translate(499.58 151.89)">800</text></g><g class="cls-21"><text class="cls-22" transform="translate(499.77 136.99)">900</text></g><g class="cls-21"><text class="cls-22" transform="translate(499.99 121.79)">1000ml</text></g></g></svg>