<svg xmlns="http://www.w3.org/2000/svg" xmlns:xlink="http://www.w3.org/1999/xlink" viewBox="0 0 692.04 764.13" xmlns:v="https://vecta.io/nano"><style><![CDATA[.M,.P,.Q,.R,.S,.T,.U,.V,.W,.e,.l,.D,.F{isolation:isolate}.q{font-family:Arial}.r{font-size:7.88px}.s{fill:#2b0733}.t{stroke:#000}.u{fill:#fff}.v{font-size:5.26px}.w{stroke-miterlimit:10}.x{fill:none}.y{font-size:11.74px}.z{fill:#ef5030}.AA{font-size:12px}.AB{fill:#595959}.AC{fill:#078aa8}.AD{fill:#dae0e8}.AE{fill:#ccd1d6}.AF{fill:#f2dcad}.AG{fill:#a6aaad}.AH{fill:#d1432c}.AI{fill:#61dbff}.AJ{stroke-linecap:round}.AK{stroke-width:10}]]></style><defs><clipPath id="A" transform="translate(-193.69 -148.71)"><path d="M354.92 776.82h0a63 63 0 0 1-63-63v-98.64a195.9 195.9 0 0 1 29.63-.72c16 .83 26.81 3.37 33.39 4.55 14 2.51 34.63 3.51 63-3.83v98.62a63 63 0 0 1-63 63h0z" class="x"/></clipPath><linearGradient id="B" x1="282.97" y1="681.43" x2="424.22" y2="681.43" gradientUnits="userSpaceOnUse"><stop offset="0" stop-color="#e9faff" stop-opacity=".9"/><stop offset=".93" stop-color="#7fd2ff" stop-opacity=".1"/></linearGradient><clipPath id="C" transform="translate(-193.69 -148.71)"><path d="M532.42 776.82h0a63 63 0 0 1-63-63v-98.64a195.9 195.9 0 0 1 29.63-.72c16 .83 26.81 3.37 33.39 4.55 14 2.51 34.63 3.51 63-3.83v98.62a63 63 0 0 1-63 63h0z" class="x"/></clipPath><linearGradient id="D" x1="460.51" x2="601.76" xlink:href="#B"/><clipPath id="E" transform="translate(-193.69 -148.71)"><path d="M711.37 778.12h0a63 63 0 0 1-63-63h0v-98.66a195.9 195.9 0 0 1 29.65-.71c16 .83 26.81 3.37 33.39 4.55 14 2.51 34.63 3.51 63-3.83v98.62a63 63 0 0 1-63 63h0z" class="x"/></clipPath><linearGradient id="F" x1="639.43" y1="682.73" x2="780.68" y2="682.73" xlink:href="#B"/><path id="G" d="M518.09 0h6.66a3 3 0 0 1 3 3v576.47h-12.66V3a3 3 0 0 1 3-3z"/><path id="H" d="M526.69 554.68h39s-4.48 21.89-18.46 23.47h-20.54v-23.47h0z"/><path id="I" d="M122.23 485.87l-9.16-.05v3.84c0 1 1.29 2.88 3.94 4.37 1.07.6 1.15 7.29 1.15 7.29l-.07 12.72c-.07 7.98 3.94 7.59 3.94 7.59s4 .44 4-7.54l.08-12.72s.16-6.69 1.24-7.28c2.67-1.46 4-3.29 4-4.33v-3.84l-9.16-.05h0z"/><path id="J" d="M131.98 384.29c-.2-5.27-4.18-9.49-9.09-9.52a8.52 8.52 0 0 0-1.37.1 9.68 9.68 0 0 1 7.72 9.4h0l-.6 101.58v3.84c0 1-1.32 2.87-4 4.33-1.08.59-1.24 7.28-1.24 7.28l-.08 12.72c0 4.84-1.5 6.58-2.66 7.21a2.56 2.56 0 0 0 1.36.35s4 .44 4-7.54l.08-12.72s.16-6.69 1.24-7.28c2.67-1.46 4-3.29 4-4.33v-3.84l.6-101.58h0z"/><path id="K" d="M119.399 487.604l.006-.6 5.32.051-.006.6z"/><path id="L" d="M117.74 480.561l.006-.6 8.72.084-.006.6z"/><path id="M" d="M124.19 490.29h-4.12s-.21 21.79.21 24.9c.36 2.63 3.28 3.06 3.7 0s.21-24.91.21-24.91h0z"/><path id="N" d="M115.31 397.04a43.61 43.61 0 0 0 .41 4.86c0 .33.25.75.56.65a.52.52 0 0 0 .27-.33 5.08 5.08 0 0 0 .23-2c0-1 .34-3.29-.2-4.09-.74-1.1-1.29.12-1.27.91h0z"/><path id="O" d="M161.23 655.11h0c-34.794 0-63-28.206-63-63v-98.64a195.9 195.9 0 0 1 29.63-.72c16 .83 26.81 3.37 33.39 4.55 14 2.51 34.63 3.51 63-3.83v98.62c0 34.794-28.206 63-63 63h0z"/><path id="P" d="M309.49 384.29c-.2-5.27-4.18-9.49-9.09-9.52s-8.94 4.14-9.2 9.41h0l-.6 101.58 18.31.11.6-101.58h0z"/><path id="Q" d="M301.69 490.29h-1.21c0 3.86.16 21.38-.22 24.16-.21 1.57-1.1 2.22-2 2.12 1 1.28 2.84 1 3.17-1.37.43-3.12.21-24.91.21-24.91h0z"/><path id="R" d="M298.19 496.62c0 .78.09 1.55.14 2.32.32 4.48-.29 9-.16 13.47a5 5 0 0 0 .4 2.12.42.42 0 0 0 .81-.2 4.07 4.07 0 0 0 .13-1.1l.36-15.36a2.64 2.64 0 0 0-.12-1.07c-.28-.69-1.56-1.42-1.55-.18h0z"/><path id="S" d="M476.076 485.393l.006-.6 5.32.053-.006.6z"/></defs><path d="M227.82 240.37l.66 157.17 219.3.69 2-157.86H227.82z" fill="#f3f4ec" class="t w"/><path d="M60.66 413.4l33.76-16.93h482.64l44.84 16.93H60.66zm0 .01h561.23v220.96H60.66z" fill="#d8d9cb"/><path class="D" d="M34.55 437.95l40.35-21.43h528l53.54 21.43H34.55z" fill="#fafeff" opacity=".38"/><path d="M34.55 664.44L0 711.38h692.04l-35.6-43.25-621.89-3.69z" fill="#565656"/><path class="F" d="M31.37 436h621.89v263.4H31.37z" fill="#fafeff" opacity=".5"/><path d="M0 711.38l2.11 49.06 689.93 3.69v-52.75" fill="#565656"/><use xlink:href="#G" class="AB"/><g fill="#3a3a3a"><use xlink:href="#H"/><path d="M515.09 554.68h-39s4.48 21.89 18.46 23.47h20.57v-23.47h0z"/></g><path d="M337.67 243.3h12.66v336.17h-12.66z" class="AB"/><g fill="#3a3a3a"><path d="M349.31 554.06h39s-4.48 22.11-18.46 23.71h-20.54v-23.71h0zm-11.64 0h-39s4.48 22.11 18.46 23.71h20.57v-23.71h0z"/><use xlink:href="#H" x="-357.38"/><path d="M157.71 554.68h-39s4.48 21.89 18.46 23.47h20.54v-23.47h0z"/></g><use xlink:href="#G" x="-357.38" class="AB"/><path d="M97.26 427.24h124.37a5 5 0 0 1 5 5v4.83H92.26v-4.83a5 5 0 0 1 5-5zm177.17 0H398.8a5 5 0 0 1 5 5v4.83H269.43v-4.83a5 5 0 0 1 5-5zm179.77 2.05h124.36a5 5 0 0 1 5 5v4.83H449.2v-4.83a5 5 0 0 1 5-5h0z" fill="#707272"/><g fill="#f3f4ec" class="t w"><path d="M25.86 199.75l74.66 37.73 472.79 4.75 98.91-42.22-61.73-10.66H33.92l-8.06 10.4h0z"/><rect x="23.9" y="62.76" width="650.64" height="137.93" rx="4.81"/></g><rect x="57.11" y="81.22" width="585.52" height="103.91" rx="6.07" fill="#1380d3" class="t w"/><g class="x t"><circle cx="456.56" cy="133.17" r="8.66"/><circle cx="481.09" cy="133.17" r="8.66"/><circle cx="505.22" cy="132.91" r="8.66"/><circle cx="529.75" cy="132.91" r="8.66"/></g><g class="w t"><g fill="#e3e5d8"><rect x="305.49" y="85.7" width="112.35" height="93.1" rx="6.07"/><rect x="439.95" y="85.7" width="106.62" height="93.1" rx="6.07"/><rect x="560.24" y="93.48" width="32.74" height="78.86" rx="6.07"/></g><rect class="M" x="310.42" y="90.25" width="102.49" height="51.31" rx="2.23" fill="#827d3f" opacity=".74"/></g><g class="AC t"><circle cx="576.55" cy="109.5" r="8.66"/><circle cx="576.55" cy="132.91" r="8.66"/><circle cx="576.55" cy="132.91" r="8.66"/><circle cx="576.66" cy="156.84" r="8.66"/></g><path d="M576.55 111.53h-4.07l2.04-3.53 2.03-3.53 2.04 3.53 2.04 3.53h-4.08zm.75 43.2h4.07l-2.03 3.53-2.04 3.53-2.04-3.53-2.03-3.53h4.07z" class="u"/><path d="M310.42 146.64h15.6m27.84 0h15.61m27.84 0h15.6" class="t w x"/><path d="M310.34 149.02h15.75v6.75h-15.75zm43.45 1.23h15.75V157h-15.75zm43.44-1.23h15.75v6.75h-15.75z" opacity=".74" class="u P"/><rect class="Q" x="338.4" y="167.55" width="47.57" height="5.42" rx=".97" opacity=".74" fill="#b2b2b2"/><text class="S R q" transform="translate(355.51 171.38)" font-size="3.44">DIS 6000</text><g class="t AC"><circle cx="456.56" cy="99.5" r="8.66"/><circle cx="481.09" cy="99.5" r="8.66"/><circle cx="505.22" cy="99.5" r="8.66"/><circle cx="529.75" cy="99.5" r="8.66"/><circle cx="456.56" cy="123.17" r="8.66"/><circle cx="481.09" cy="123.17" r="8.66"/><circle cx="505.22" cy="122.91" r="8.66"/><circle cx="529.75" cy="122.91" r="8.66"/><circle cx="456.66" cy="147.11" r="8.66"/><circle cx="481.19" cy="147.11" r="8.66"/><circle cx="505.32" cy="146.84" r="8.66"/><circle cx="529.85" cy="146.84" r="8.66"/></g><text class="T R q u y" transform="translate(453.03 104.1)">1</text><text class="T R q u y" transform="translate(477.29 104.1)">2</text><text class="T R q u y" transform="translate(501.38 104.1)">3</text><text class="T R q u y" transform="translate(524.54 104.1)">4</text><text class="T R q u y" transform="translate(453.03 126.59)">5</text><text class="T R q u y" transform="translate(477.29 126.59)">6</text><text class="U R q u AA" transform="translate(502.46 126.66)">7</text><text class="U R q u AA" transform="translate(526.15 126.66)">8</text><text class="T R q u y" transform="translate(453.03 150)">9</text><text class="T R q u y" transform="translate(477.29 150)">0</text><text class="U R q u AA" transform="translate(504.3 149.81)">.</text><text class="U R q u AA" transform="translate(524.41 150.73)">M</text><g class="R V q r s"><text transform="translate(313.87 100.54)">T</text><text transform="translate(317.7 100.54)">ime</text></g><g class="R V q r s"><text transform="translate(314.26 110.83)">R</text><text transform="translate(318.5 110.83)">P</text><text transform="translate(322.6 110.83)">M</text></g><g class="R V q r s"><text transform="translate(314.26 122.04)">T</text><text transform="translate(317.62 122.04)">emp</text></g><g class="R V q r s"><text transform="translate(314.26 133.04)">P</text><text transform="translate(318.25 133.04)">ause</text></g><text class="V R q r s" transform="translate(338.4 100.54)">24:00</text><text class="V R q r s" transform="translate(350.22 110.83)">50</text><text class="V R q r s" transform="translate(344.2 123.71)">37.0</text><g class="R V q r s"><text transform="translate(364.97 100.54)">a</text><text transform="translate(368.77 100.54)">c</text><text transform="translate(372.4 100.54)">t</text></g><g class="R V q r s"><text transform="translate(365.36 110.83)">a</text><text transform="translate(369.16 110.83)">c</text><text transform="translate(372.79 110.83)">t</text></g><g class="R V q r s"><text transform="translate(365.36 123.71)">a</text><text transform="translate(369.16 123.71)">c</text><text transform="translate(372.79 123.71)">t</text></g><g class="R V q r s"><text transform="translate(386.28 133.04)">ABO</text><text transform="translate(400.81 133.04)">R</text><text transform="translate(405.12 133.04)">T</text></g><text class="V R q r s" transform="translate(394.22 123.71)">37.0</text><text class="V R q r s" transform="translate(400.24 110.83)">50</text><text class="V R q r s" transform="translate(388.8 100.54)">00:01</text><path d="M461.81 162.1h61a5.54 5.54 0 0 1 5.54 5.54h0a5.54 5.54 0 0 1-5.54 5.54h-61a5.54 5.54 0 0 1-5.54-5.54h0a5.54 5.54 0 0 1 5.54-5.54z" class="t w AC"/><g class="R W q u"><text transform="translate(481.09 170.26)" font-size="6.32">C</text><text transform="translate(484.78 170.26)" font-size="6.32">ANCE<tspan x="17.57" y="0">L</tspan></text></g><g fill="#a2a3a3"><rect x="329.06" y="240.6" width="31.05" height="9.15" rx="3.09"/><rect x="505.67" y="242.6" width="31.05" height="9.15" rx="3.09"/><rect x="148.51" y="238.6" width="31.05" height="9.15" rx="3.09"/></g><g class="AD"><path d="M131.98 384.29c-.2-5.27-4.18-9.49-9.09-9.52s-8.94 4.14-9.2 9.41h0l-.6 101.58 18.22.17.6-101.58h0z"/><use xlink:href="#I"/></g><use xlink:href="#J" class="AE"/><path d="M126.78 490.05l-9.47-.06.62-104.63a2.54 2.54 0 0 1 2.55-2.52h4.38a2.54 2.54 0 0 1 2.49 2.57l-.58 104.64h0z" class="AF"/><g class="AG"><use xlink:href="#K"/><use xlink:href="#K" y="-1.756"/><use xlink:href="#K" x="0.02" y="-3.503"/><use xlink:href="#K" x="0.03" y="-5.26"/><use xlink:href="#K" x="0.051" y="-8.774"/><use xlink:href="#K" x="0.061" y="-10.531"/><use xlink:href="#K" x="0.071" y="-12.277"/><use xlink:href="#K" x="0.091" y="-14.034"/><use xlink:href="#L"/><path d="M117.747 489.348l.006-.6 8.72.087-.006.6z"/><use xlink:href="#K" x="0.112" y="-17.538"/><use xlink:href="#K" x="0.112" y="-19.295"/><use xlink:href="#K" x="0.132" y="-21.052"/><use xlink:href="#K" x="0.142" y="-22.808"/><use xlink:href="#K" x="0.163" y="-26.312"/><use xlink:href="#K" x="0.173" y="-28.069"/><use xlink:href="#K" x="0.173" y="-29.816"/><use xlink:href="#K" x="0.203" y="-31.573"/><use xlink:href="#L" x="0.102" y="-17.539"/><use xlink:href="#L" x="0.061" y="-8.764"/><use xlink:href="#K" x="0.224" y="-35.086"/><use xlink:href="#K" x="0.224" y="-36.843"/><use xlink:href="#K" x="0.244" y="-38.59"/><use xlink:href="#K" x="0.254" y="-40.347"/><use xlink:href="#K" x="0.275" y="-43.85"/><use xlink:href="#K" x="0.285" y="-45.607"/><use xlink:href="#K" x="0.295" y="-47.354"/><use xlink:href="#K" x="0.315" y="-49.121"/><use xlink:href="#L" x="0.234" y="-35.077"/><path d="M117.971 454.269l.006-.6 8.72.087-.006.6z"/><use xlink:href="#K" x="0.336" y="-52.625"/><use xlink:href="#K" x="0.336" y="-54.382"/><use xlink:href="#K" x="0.356" y="-56.138"/><use xlink:href="#K" x="0.366" y="-57.885"/><use xlink:href="#K" x="0.386" y="-61.389"/><use xlink:href="#K" x="0.387" y="-63.146"/><use xlink:href="#K" x="0.407" y="-64.913"/><use xlink:href="#K" x="0.427" y="-66.659"/><use xlink:href="#L" x="0.335" y="-52.615"/><use xlink:href="#L" x="0.274" y="-43.851"/><use xlink:href="#K" x="0.447" y="-70.163"/><use xlink:href="#K" x="0.448" y="-71.92"/><use xlink:href="#K" x="0.468" y="-73.677"/><use xlink:href="#K" x="0.478" y="-75.423"/><use xlink:href="#K" x="0.498" y="-78.937"/><use xlink:href="#K" x="0.508" y="-80.694"/><use xlink:href="#K" x="0.519" y="-82.451"/><use xlink:href="#K" x="0.539" y="-84.198"/><use xlink:href="#L" x="0.457" y="-70.154"/><use xlink:href="#L" x="0.396" y="-61.39"/><use xlink:href="#K" x="0.559" y="-87.701"/><use xlink:href="#K" x="0.559" y="-89.458"/><use xlink:href="#K" x="0.58" y="-91.215"/><use xlink:href="#K" x="0.59" y="-92.972"/><use xlink:href="#K" x="0.6" y="-96.476"/><use xlink:href="#K" x="0.62" y="-98.232"/><use xlink:href="#K" x="0.631" y="-99.989"/><use xlink:href="#K" x="0.651" y="-101.736"/><use xlink:href="#L" x="0.569" y="-87.702"/><use xlink:href="#L" x="0.508" y="-78.928"/></g><use xlink:href="#M" class="z"/><path d="M124.19 490.29h-1.21c0 3.86.16 21.38-.22 24.16-.21 1.57-1.1 2.22-1.95 2.12 1 1.28 2.84 1 3.17-1.37.43-3.12.21-24.91.21-24.91h0z" class="AH"/><path d="M123.04 496.82l-1.22-.02.02-100.67 1.21.02-.01 100.67z" class="z"/><g class="u"><path d="M115.76 382.54a71.14 71.14 0 0 0-.66 7.2 9.91 9.91 0 0 0 .31 3.54.7.7 0 0 0 .17.3.52.52 0 0 0 .72-.15h0a1.51 1.51 0 0 0 .16-.83 68.89 68.89 0 0 1 .45-7.74 7.57 7.57 0 0 1 1.16-3.75 4.74 4.74 0 0 1 4-1.74 4.23 4.23 0 0 0 1.16 0 1 1 0 0 0 .79-.76 1.28 1.28 0 0 0-1.32-1.07 6.13 6.13 0 0 0-7 5h0z"/><use xlink:href="#N"/><path class="e" d="M120.69 496.62c0 .78.09 1.55.14 2.32.32 4.48-.29 9-.16 13.47a5 5 0 0 0 .4 2.12.42.42 0 0 0 .81-.2 4.07 4.07 0 0 0 .13-1.1l.3-15.35a2.64 2.64 0 0 0-.12-1.07c-.28-.69-1.56-1.42-1.55-.18h0z" opacity=".45"/></g><g opacity=".8" class="AI"><g clip-path="url(#A)"><use xlink:href="#O"/></g></g><path d="M417.8,586.33v-0.26H291.51a8.84,8.84,0,0,0-8.46,6.29,2,2,0,0,0,1.89,2.56h6.83V713.8a63,63,0,0,0,63,63h0a63,63,0,0,0,63-63V594.91h4.49a2,2,0,0,0,1.88-2.57,8.85,8.85,0,0,0-6.38-6h0Z" transform="translate(-193.69 -148.71)" fill="url(#B)"/><path d="M211.99 574.65s-6.76 24.43-29.1 34.11" stroke="#fff" class="w x AJ AK"/><g opacity=".78"><g class="t w x"><path d="M105.87 554.79l36.02-.03m-36.02-7.52l28.62-.03m-28.62-6.52l36.02-.03m-36.02-7.52l28.62-.03m-28.62-8.95l36.02-.03m-36.02-7.52l28.62-.03m-28.62-7.52l36.02-.04m-36.02-7.52l28.62-.03m-28.62-7.52l36.02-.03m-36.02 67.04l28.62-.03"/></g><text class="l q v" transform="translate(142.72 556.21)">600</text><text class="l q v" transform="translate(142.94 542.61)">700</text><text class="l q v" transform="translate(143.12 525.42)">800</text><text class="l q v" transform="translate(143.32 510.52)">900</text><text class="l q v" transform="translate(143.53 495.32)">1000ml</text></g><g class="AD"><use xlink:href="#P"/><use xlink:href="#I" x="177.5"/></g><use xlink:href="#J" x="177.51" class="AE"/><path d="M304.31 490.05l-9.46-.06.62-104.63a2.54 2.54 0 0 1 2.55-2.52h4.38a2.54 2.54 0 0 1 2.52 2.55l-.61 104.66h0z" class="AF"/><g class="AG"><use xlink:href="#K" x="177.504" y="-0.001"/><use xlink:href="#K" x="177.514" y="-1.758"/><use xlink:href="#K" x="177.524" y="-3.515"/><use xlink:href="#K" x="177.544" y="-5.272"/><use xlink:href="#K" x="177.555" y="-8.776"/><use xlink:href="#K" x="177.565" y="-10.522"/><use xlink:href="#K" x="177.585" y="-12.279"/><use xlink:href="#K" x="177.595" y="-14.036"/><use xlink:href="#L" x="177.504" y="0.008"/><use xlink:href="#L" x="177.463" y="8.782"/><use xlink:href="#K" x="177.616" y="-17.54"/><use xlink:href="#K" x="177.626" y="-19.307"/><use xlink:href="#K" x="177.636" y="-21.053"/><use xlink:href="#K" x="177.656" y="-22.81"/><use xlink:href="#K" x="177.677" y="-26.314"/><use xlink:href="#K" x="177.677" y="-28.071"/><use xlink:href="#K" x="177.697" y="-29.818"/><use xlink:href="#K" x="177.707" y="-31.574"/><use xlink:href="#L" x="177.615" y="-17.53"/><use xlink:href="#L" x="177.575" y="-8.756"/><use xlink:href="#K" x="177.728" y="-35.088"/><use xlink:href="#K" x="177.738" y="-36.845"/><use xlink:href="#K" x="177.748" y="-38.592"/><use xlink:href="#K" x="177.768" y="-40.349"/><use xlink:href="#K" x="177.789" y="-43.852"/><use xlink:href="#K" x="177.789" y="-45.609"/><use xlink:href="#K" x="177.809" y="-47.366"/><use xlink:href="#K" x="177.819" y="-49.123"/><use xlink:href="#L" x="177.717" y="-35.069"/><path d="M295.548 454.257l.006-.6 8.72.087-.006.6z"/><use xlink:href="#K" x="177.839" y="-52.627"/><use xlink:href="#K" x="177.85" y="-54.373"/><use xlink:href="#K" x="177.86" y="-56.13"/><use xlink:href="#K" x="177.88" y="-57.887"/><use xlink:href="#K" x="177.9" y="-61.401"/><use xlink:href="#K" x="177.9" y="-63.158"/><use xlink:href="#K" x="177.921" y="-64.904"/><use xlink:href="#K" x="177.931" y="-66.661"/><use xlink:href="#L" x="177.849" y="-52.607"/><use xlink:href="#L" x="177.788" y="-43.843"/><use xlink:href="#K" x="177.951" y="-70.165"/><use xlink:href="#K" x="177.961" y="-71.912"/><use xlink:href="#K" x="177.972" y="-73.669"/><use xlink:href="#K" x="177.982" y="-75.425"/><use xlink:href="#K" x="178.012" y="-78.939"/><use xlink:href="#K" x="178.012" y="-80.696"/><use xlink:href="#K" x="178.033" y="-82.443"/><use xlink:href="#K" x="178.043" y="-84.2"/><use xlink:href="#L" x="177.961" y="-70.156"/><use xlink:href="#L" x="177.9" y="-61.381"/><use xlink:href="#K" x="178.063" y="-87.703"/><use xlink:href="#K" x="178.073" y="-89.46"/><use xlink:href="#K" x="178.083" y="-91.217"/><use xlink:href="#K" x="178.104" y="-92.974"/><use xlink:href="#K" x="178.114" y="-96.477"/><use xlink:href="#K" x="178.124" y="-98.234"/><use xlink:href="#K" x="178.135" y="-99.981"/><use xlink:href="#K" x="178.155" y="-101.738"/><use xlink:href="#L" x="178.073" y="-87.704"/><use xlink:href="#L" x="178.022" y="-78.92"/></g><use xlink:href="#M" x="177.5" class="z"/><use xlink:href="#Q" class="AH"/><path d="M300.54 496.82l-1.22-.02.02-100.67 1.22.02-.02 100.67z" class="z"/><g class="u"><path d="M293.26 382.54a71.14 71.14 0 0 0-.66 7.2 9.91 9.91 0 0 0 .31 3.54.7.7 0 0 0 .17.3.52.52 0 0 0 .72-.15h0a1.51 1.51 0 0 0 .16-.83 68.9 68.9 0 0 1 .45-7.74 7.57 7.57 0 0 1 1.16-3.75 4.74 4.74 0 0 1 4-1.74 4.23 4.23 0 0 0 1.16 0 1 1 0 0 0 .79-.76 1.27 1.27 0 0 0-1.32-1.07 6.13 6.13 0 0 0-6.94 5zm-.4 14.5a43.6 43.6 0 0 0 .41 4.86c0 .33.25.75.56.65a.52.52 0 0 0 .27-.33 5.09 5.09 0 0 0 .23-2c0-1 .34-3.29-.2-4.09-.74-1.1-1.29.12-1.27.91h0z"/><use xlink:href="#R" class="e" opacity=".45"/></g><g opacity=".8" class="AI"><g clip-path="url(#C)"><path d="M338.73 655.11h0c-34.794 0-63-28.206-63-63v-98.64a195.9 195.9 0 0 1 29.63-.72c16 .83 26.81 3.37 33.39 4.55 14 2.51 34.63 3.51 63-3.83v98.62c0 34.794-28.206 63-63 63h0z"/></g></g><path d="M595.31,586.33v-0.26H469a8.84,8.84,0,0,0-8.46,6.28,2,2,0,0,0,1.89,2.56h6.83V713.8a63,63,0,0,0,63,63h0a63,63,0,0,0,63-63V594.91h4.49a2,2,0,0,0,1.88-2.57,8.85,8.85,0,0,0-6.38-6h0Z" transform="translate(-193.69 -148.71)" fill="url(#D)"/><path d="M389.49 574.65s-6.75 24.43-29.13 34.1" stroke="#fff" class="w x AJ AK"/><g opacity=".78"><g class="t w x"><path d="M283.37 554.79l36.02-.03m-36.02-7.52l28.63-.03m-28.63-6.52l36.02-.03m-36.02-7.52l28.63-.03m-28.63-8.95l36.02-.03m-36.02-7.52l28.63-.03m-28.63-7.52l36.02-.04m-36.02-7.52l28.63-.03m-28.63-7.52l36.02-.03m-36.02 67.04l28.63-.03"/></g><text class="l q v" transform="translate(320.22 556.21)">600</text><text class="l q v" transform="translate(320.44 542.61)">700</text><text class="l q v" transform="translate(320.62 525.42)">800</text><text class="l q v" transform="translate(320.82 510.52)">900</text><text class="l q v" transform="translate(321.03 495.32)">1000ml</text></g><g class="AD"><use xlink:href="#P" x="178.95" y="1.35"/><use xlink:href="#I" x="356.46" y="1.3"/></g><path d="M488.44 385.64c-.2-5.27-4.18-9.49-9.09-9.52a8.52 8.52 0 0 0-1.37.1 9.68 9.68 0 0 1 7.72 9.4h0l-.6 101.58v3.84c0 1-1.32 2.87-4 4.33-1.08.59-1.24 7.28-1.24 7.28l-.08 12.72c0 4.84-1.5 6.58-2.66 7.21a2.56 2.56 0 0 0 1.36.35c0 0 4 .44 4-7.54l.08-12.72s.16-6.69 1.24-7.28c2.67-1.46 4-3.29 4-4.33v-3.84l.6-101.58h0z" class="AE"/><path d="M483.24 491.29l-9.46-.06.53-104.58a2.54 2.54 0 0 1 2.55-2.52h4.45a2.54 2.54 0 0 1 2.58 2.5c0 0 0 .08 0 .12l-.62 104.63h0 0z" class="AF"/><g class="AG"><use xlink:href="#K" x="356.462" y="1.289"/><use xlink:href="#K" x="356.482" y="-0.458"/><use xlink:href="#S"/><use xlink:href="#K" x="356.502" y="-3.961"/><use xlink:href="#K" x="356.523" y="-7.485"/><use xlink:href="#S" x="0.04" y="-7.02"/><use xlink:href="#K" x="356.553" y="-10.989"/><use xlink:href="#K" x="356.543" y="-12.735"/><use xlink:href="#L" x="356.471" y="1.309"/><use xlink:href="#L" x="356.421" y="10.073"/><use xlink:href="#K" x="356.573" y="-16.249"/><use xlink:href="#K" x="356.584" y="-17.996"/><use xlink:href="#K" x="356.604" y="-19.753"/><use xlink:href="#S" x="0.122" y="-19.292"/><use xlink:href="#K" x="356.634" y="-25.023"/><use xlink:href="#K" x="356.645" y="-26.77"/><use xlink:href="#K" x="356.665" y="-28.527"/><use xlink:href="#K" x="356.665" y="-30.274"/><use xlink:href="#L" x="356.593" y="-16.24"/><use xlink:href="#L" x="356.532" y="-7.466"/><use xlink:href="#K" x="356.695" y="-33.787"/><use xlink:href="#K" x="356.706" y="-35.534"/><use xlink:href="#K" x="356.716" y="-37.301"/><use xlink:href="#K" x="356.726" y="-39.048"/><use xlink:href="#K" x="356.746" y="-42.562"/><use xlink:href="#K" x="356.757" y="-44.308"/><use xlink:href="#K" x="356.777" y="-46.065"/><use xlink:href="#K" x="356.777" y="-47.822"/><use xlink:href="#L" x="356.705" y="-33.778"/><use xlink:href="#L" x="356.644" y="-25.004"/><use xlink:href="#K" x="356.807" y="-51.336"/><use xlink:href="#K" x="356.817" y="-53.083"/><use xlink:href="#K" x="356.828" y="-54.84"/><use xlink:href="#K" x="356.838" y="-56.596"/><use xlink:href="#S" x="0.366" y="-57.916"/><use xlink:href="#K" x="356.868" y="-61.847"/><use xlink:href="#K" x="356.889" y="-63.604"/><use xlink:href="#S" x="0.407" y="-63.179"/><use xlink:href="#L" x="356.817" y="-51.316"/><use xlink:href="#L" x="356.756" y="-42.542"/><use xlink:href="#K" x="356.929" y="-68.874"/><use xlink:href="#K" x="356.929" y="-70.621"/><use xlink:href="#K" x="356.94" y="-72.378"/><use xlink:href="#K" x="356.95" y="-74.135"/><use xlink:href="#K" x="356.98" y="-77.638"/><use xlink:href="#K" x="356.98" y="-79.385"/><use xlink:href="#K" x="357" y="-81.152"/><use xlink:href="#S" x="0.499" y="-80.724"/><use xlink:href="#L" x="356.929" y="-68.855"/><use xlink:href="#L" x="356.868" y="-60.091"/><use xlink:href="#K" x="357.041" y="-86.413"/><use xlink:href="#S" x="0.539" y="-85.976"/><use xlink:href="#S" x="0.56" y="-87.733"/><use xlink:href="#S" x="0.57" y="-89.481"/><use xlink:href="#K" x="357.072" y="-95.187"/><use xlink:href="#K" x="357.092" y="-96.934"/><use xlink:href="#K" x="357.102" y="-98.69"/><use xlink:href="#K" x="357.112" y="-100.447"/><use xlink:href="#L" x="357.041" y="-86.393"/><use xlink:href="#L" x="356.97" y="-77.629"/></g><path d="M480.65 491.54h-4.12s-.21 21.79.21 24.9c.36 2.63 3.28 3.06 3.7 0s.21-24.9.21-24.9z" class="z"/><use xlink:href="#Q" x="178.96" y="1.25" class="AH"/><path d="M479.5 498.11l-1.22-.01.01-100.68 1.22.02-.01 100.67z" class="z"/><g class="u"><path d="M472.22 383.83a71.12 71.12 0 0 0-.66 7.2 9.91 9.91 0 0 0 .31 3.54.7.7 0 0 0 .17.3.52.52 0 0 0 .72-.15h0a1.52 1.52 0 0 0 .16-.83 68.9 68.9 0 0 1 .45-7.74 7.57 7.57 0 0 1 1.16-3.75 4.74 4.74 0 0 1 4-1.74 4.23 4.23 0 0 0 1.16 0 1 1 0 0 0 .79-.76 1.27 1.27 0 0 0-1.32-1.07 6.13 6.13 0 0 0-7 5h0z"/><use xlink:href="#N" x="356.5" y="1.25"/><use xlink:href="#R" x="178.96" y="1.3" class="e" opacity=".45"/></g><g opacity=".8" class="AI"><g clip-path="url(#E)"><path d="M517.68 656.41h0c-34.794 0-63-28.206-63-63h0v-98.66a195.9 195.9 0 0 1 29.65-.71c16 .83 26.81 3.37 33.39 4.55 14 2.51 34.63 3.51 63-3.83v98.62c0 34.794-28.206 63-63 63h0z"/></g></g><path d="M774.26,587.63v-0.26H648a8.84,8.84,0,0,0-8.46,6.28,2,2,0,0,0,1.89,2.56h6.83V715.1a63,63,0,0,0,63,63h0a63,63,0,0,0,63-63V596.21h4.49a2,2,0,0,0,1.88-2.57,8.85,8.85,0,0,0-6.38-6h0Z" transform="translate(-193.69 -148.71)" fill="url(#F)"/><path d="M568.45 575.94s-6.76 24.43-29.1 34.11" stroke="#fff" class="w x AJ AK"/><g opacity=".78"><g class="t w x"><path d="M462.33 556.09l36.02-.03m-36.02-7.52l28.62-.03m-28.62-6.52l36.02-.03m-36.02-7.52l28.62-.03m-28.62-8.95l36.02-.03m-36.02-7.52l28.62-.04m-28.62-7.52l36.02-.03m-36.02-7.52l28.62-.03m-28.62-7.52l36.02-.04m-36.02 67.05l28.62-.03"/></g><text class="l q v" transform="translate(499.18 557.5)">600</text><text class="l q v" transform="translate(499.4 543.91)">700</text><text class="l q v" transform="translate(499.58 526.72)">800</text><text class="l q v" transform="translate(499.77 511.82)">900</text><text class="l q v" transform="translate(499.99 496.62)">1000ml</text></g></svg>