<svg id="Layer_1" data-name="Layer 1" xmlns="http://www.w3.org/2000/svg" viewBox="0 0 359.93 485.86"><defs><linearGradient id="linear-gradient" x1="60.45" y1="249.5" x2="420.39" y2="249.5" gradientTransform="matrix(1 0 0 -1 0 500)" gradientUnits="userSpaceOnUse"><stop offset="0" stop-color="#e9faff" stop-opacity=".9"/><stop offset=".93" stop-color="#7fd2ff" stop-opacity=".1"/></linearGradient><clipPath id="clip-path" transform="translate(-60.45 -7.57)"><path d="M403.92 154.12v178.79a160.52 160.52 0 01-158.45 160.51H239.26l-2-.06a160.54 160.54 0 01-154-150.1V154.05a604.29 604.29 0 0175.53-1.5c40.75 1.74 68.29 7.07 85.06 9.55 35.54 5.25 88.06 7.37 160.12-8z" fill="none"/></clipPath><style>.cls-7{isolation:isolate}</style></defs><g clip-path="url(#clip-path)"><path d="M403.92 154.12v178.79a160.52 160.52 0 01-158.45 160.51H239.26l-2-.06a160.54 160.54 0 01-154-150.1V154.05a604.29 604.29 0 0175.53-1.5c40.75 1.74 68.29 7.07 85.06 9.55 35.54 5.25 88.06 7.37 160.12-8z" transform="translate(-60.45 -7.57)" fill="#61dbff"/></g><path d="M415.37 30.07h-11.45v302.84a160.52 160.52 0 01-158.45 160.51H239.26l-2-.06a160.54 160.54 0 01-154-150.1q-.33-5.12-.33-10.31V30.07H65.48a5 5 0 01-4.81-6.51 22.53 22.53 0 0121.55-16h321.7v.66a22.54 22.54 0 0116.24 15.3 5 5 0 01-4.79 6.55z" transform="translate(-60.45 -7.57)" fill="url(#linear-gradient)"/><path d="M289.45 449.14a5 5 0 01-2-9.59c54-23.38 71.14-83 71.31-83.64a5 5 0 019.64 2.67c-.73 2.63-18.52 64.83-77 90.15a5 5 0 01-1.95.41z" transform="translate(-60.45 -7.57)" fill="#fff"/><g opacity=".78"><path d="M45.58 298.56h91.76v1H45.58zM45.58 279.32h72.92v1H45.58zM45.58 262.64h91.76v1H45.58zM45.58 243.4h72.92v1H45.58zM45.58 220.53h91.76v1H45.58zM45.58 201.29h72.92v1H45.58zM45.58 182.05h91.76v1H45.58zM45.58 162.81h72.92v1H45.58zM45.58 143.57h91.76v1H45.58zM45.58 314.27h72.92v1H45.58z"/><g class="cls-7"><path d="M206.57 303l-1.17.09a2.22 2.22 0 00-.44-1 1.56 1.56 0 00-1.18-.5 1.62 1.62 0 00-1 .31 2.69 2.69 0 00-.88 1.18 6.19 6.19 0 00-.33 2.22 2.72 2.72 0 011-1 2.8 2.8 0 011.29-.31 2.67 2.67 0 012 .87 3.11 3.11 0 01.83 2.24 3.68 3.68 0 01-.39 1.68 2.83 2.83 0 01-1.07 1.19 2.92 2.92 0 01-1.54.41 3 3 0 01-2.4-1.08 5.46 5.46 0 01-.93-3.57 6.39 6.39 0 011-4 3 3 0 012.41-1.1 2.57 2.57 0 012.8 2.37zm-4.8 4.13a2.73 2.73 0 00.26 1.16 1.93 1.93 0 00.72.85 1.8 1.8 0 001 .29 1.66 1.66 0 001.28-.6 2.37 2.37 0 00.54-1.63 2.21 2.21 0 00-.53-1.57 1.74 1.74 0 00-1.33-.57 1.81 1.81 0 00-1.35.57 2.06 2.06 0 00-.6 1.53zM207.91 305.54a8.76 8.76 0 01.35-2.74 3.4 3.4 0 011-1.6 2.66 2.66 0 011.74-.56 2.83 2.83 0 011.35.31 2.59 2.59 0 011 .9 4.82 4.82 0 01.59 1.42 9.47 9.47 0 01.22 2.26 8.8 8.8 0 01-.35 2.72 3.4 3.4 0 01-1 1.6 2.66 2.66 0 01-1.74.57 2.63 2.63 0 01-2.18-1 6.31 6.31 0 01-.98-3.88zm1.21 0a6 6 0 00.55 3.14 1.58 1.58 0 002.73 0 9.21 9.21 0 000-6.28 1.64 1.64 0 00-1.38-.78 1.51 1.51 0 00-1.29.69 6.08 6.08 0 00-.61 3.23zM215.35 305.54a8.76 8.76 0 01.35-2.74 3.4 3.4 0 011-1.6 2.66 2.66 0 011.74-.56 2.83 2.83 0 011.35.31 2.59 2.59 0 011 .9 4.82 4.82 0 01.59 1.42 9.47 9.47 0 01.22 2.26 8.8 8.8 0 01-.35 2.72 3.4 3.4 0 01-1 1.6 2.66 2.66 0 01-1.74.57 2.63 2.63 0 01-2.18-1 6.31 6.31 0 01-.98-3.88zm1.21 0a6 6 0 00.55 3.14 1.58 1.58 0 002.73 0 9.21 9.21 0 000-6.28 1.64 1.64 0 00-1.38-.78 1.51 1.51 0 00-1.29.69 6.08 6.08 0 00-.61 3.23z" transform="translate(-60.45 -7.57)"/></g><g class="cls-7"><path d="M201.1 267.32v-1.13h6.2v.92a13.07 13.07 0 00-1.81 2.59 15.74 15.74 0 00-1.39 3.3 12.34 12.34 0 00-.45 2.63h-1.21a11.73 11.73 0 01.44-2.73 14.35 14.35 0 011.22-3.09 13.25 13.25 0 011.69-2.51h-4.69zM208.47 270.92a8.76 8.76 0 01.35-2.74 3.4 3.4 0 011-1.6 2.66 2.66 0 011.74-.56 2.83 2.83 0 011.35.31 2.59 2.59 0 011 .9 4.82 4.82 0 01.59 1.42 9.47 9.47 0 01.22 2.26 8.8 8.8 0 01-.35 2.72 3.4 3.4 0 01-1 1.6 2.66 2.66 0 01-1.74.57 2.63 2.63 0 01-2.18-1 6.31 6.31 0 01-.98-3.88zm1.21 0a6 6 0 00.55 3.14 1.58 1.58 0 002.73 0 9.21 9.21 0 000-6.28 1.64 1.64 0 00-1.38-.78 1.51 1.51 0 00-1.29.69 6.08 6.08 0 00-.61 3.23zM215.91 270.92a8.76 8.76 0 01.35-2.74 3.4 3.4 0 011-1.6A2.66 2.66 0 01219 266a2.83 2.83 0 011.35.31 2.59 2.59 0 011 .9 4.82 4.82 0 01.59 1.42 9.47 9.47 0 01.22 2.26 8.8 8.8 0 01-.35 2.72 3.4 3.4 0 01-1 1.6 2.66 2.66 0 01-1.74.57 2.63 2.63 0 01-2.18-1 6.31 6.31 0 01-.98-3.86zm1.21 0a6 6 0 00.55 3.14 1.58 1.58 0 002.73 0 9.21 9.21 0 000-6.28 1.64 1.64 0 00-1.4-.78 1.51 1.51 0 00-1.29.69 6.08 6.08 0 00-.59 3.23z" transform="translate(-60.45 -7.57)"/></g><g class="cls-7"><path d="M203.29 226.66a2.21 2.21 0 01-1.08-.76 2 2 0 01-.35-1.19 2.33 2.33 0 01.75-1.76 3.16 3.16 0 014 0 2.36 2.36 0 01.76 1.77 2 2 0 01-.35 1.16 2.21 2.21 0 01-1.06.76 2.58 2.58 0 011.34.93 2.55 2.55 0 01.46 1.53 2.75 2.75 0 01-.87 2.07 3.54 3.54 0 01-4.58 0 2.79 2.79 0 01-.87-2.09 2.53 2.53 0 01.47-1.57 2.37 2.37 0 011.38-.85zm-.61 2.43a2.12 2.12 0 00.24 1 1.68 1.68 0 00.71.73 2.07 2.07 0 001 .26 1.9 1.9 0 001.39-.54 1.86 1.86 0 00.55-1.38 1.89 1.89 0 00-.57-1.41 1.94 1.94 0 00-1.42-.56 1.87 1.87 0 00-1.9 1.9zm.38-4.42a1.49 1.49 0 00.44 1.11 1.55 1.55 0 001.14.43 1.52 1.52 0 001.11-.43 1.42 1.42 0 00.43-1 1.47 1.47 0 00-.45-1.09 1.52 1.52 0 00-1.11-.44 1.54 1.54 0 00-1.12.43 1.39 1.39 0 00-.45.98zM208.92 227.13a8.76 8.76 0 01.35-2.74 3.4 3.4 0 011-1.6 2.66 2.66 0 011.74-.56 2.83 2.83 0 011.35.31 2.59 2.59 0 011 .9 4.82 4.82 0 01.59 1.42 9.47 9.47 0 01.22 2.26 8.8 8.8 0 01-.35 2.72 3.4 3.4 0 01-1 1.6 2.66 2.66 0 01-1.82.56 2.63 2.63 0 01-2.18-1 6.31 6.31 0 01-.9-3.87zm1.21 0a6 6 0 00.55 3.14 1.58 1.58 0 002.73 0 9.21 9.21 0 000-6.28 1.64 1.64 0 00-1.38-.78 1.51 1.51 0 00-1.29.69 6.08 6.08 0 00-.61 3.23zM216.37 227.13a8.76 8.76 0 01.35-2.74 3.4 3.4 0 011-1.6 2.66 2.66 0 011.74-.56 2.83 2.83 0 011.35.31 2.59 2.59 0 011 .9 4.82 4.82 0 01.59 1.42 9.47 9.47 0 01.22 2.26 8.8 8.8 0 01-.35 2.72 3.4 3.4 0 01-1 1.6 2.66 2.66 0 01-1.74.57 2.63 2.63 0 01-2.18-1 6.31 6.31 0 01-.98-3.88zm1.21 0a6 6 0 00.55 3.14 1.58 1.58 0 002.73 0 9.21 9.21 0 000-6.28 1.64 1.64 0 00-1.38-.78 1.51 1.51 0 00-1.29.69 6.08 6.08 0 00-.61 3.23z" transform="translate(-60.45 -7.57)"/></g><g class="cls-7"><path d="M202.15 191.68l1.13-.1a2 2 0 00.55 1.16 1.51 1.51 0 001 .36 1.79 1.79 0 001-.25 2 2 0 00.67-.66 3.9 3.9 0 00.44-1.12 5.9 5.9 0 00.18-1.44v-.24a2.7 2.7 0 01-1 .91 2.63 2.63 0 01-1.32.35 2.68 2.68 0 01-2-.86 3.16 3.16 0 01-.82-2.27 3.23 3.23 0 01.86-2.35 2.87 2.87 0 012.15-.89 3.08 3.08 0 011.71.5 3.15 3.15 0 011.18 1.43 7.08 7.08 0 01.4 2.7 8.73 8.73 0 01-.4 2.92 3.43 3.43 0 01-1.19 1.66 3.07 3.07 0 01-1.85.57 2.53 2.53 0 01-2.69-2.38zm4.82-4.23a2.3 2.3 0 00-.54-1.61 1.69 1.69 0 00-1.3-.59 1.79 1.79 0 00-1.37.64 2.37 2.37 0 00-.58 1.66 2.05 2.05 0 00.55 1.49 1.82 1.82 0 001.36.57 1.74 1.74 0 001.34-.57 2.26 2.26 0 00.57-1.59zM209.42 189.17a8.76 8.76 0 01.35-2.74 3.4 3.4 0 011-1.6 2.66 2.66 0 011.74-.56 2.83 2.83 0 011.35.31 2.59 2.59 0 011 .9 4.82 4.82 0 01.59 1.42 9.47 9.47 0 01.22 2.26 8.8 8.8 0 01-.35 2.72 3.4 3.4 0 01-1 1.6 2.66 2.66 0 01-1.74.57 2.63 2.63 0 01-2.18-1 6.31 6.31 0 01-.98-3.88zm1.21 0a6 6 0 00.55 3.14 1.58 1.58 0 002.73 0 9.21 9.21 0 000-6.28 1.64 1.64 0 00-1.38-.78 1.51 1.51 0 00-1.29.69 6.08 6.08 0 00-.61 3.23zM216.86 189.17a8.76 8.76 0 01.35-2.74 3.4 3.4 0 011-1.6 2.66 2.66 0 011.74-.56 2.83 2.83 0 011.35.31 2.59 2.59 0 011 .9 4.82 4.82 0 01.59 1.42 9.47 9.47 0 01.22 2.26 8.8 8.8 0 01-.35 2.72 3.4 3.4 0 01-1 1.6 2.66 2.66 0 01-1.74.57 2.63 2.63 0 01-2.18-1 6.31 6.31 0 01-.98-3.88zm1.21 0a6 6 0 00.55 3.14 1.58 1.58 0 002.73 0 9.21 9.21 0 000-6.28 1.64 1.64 0 00-1.38-.78 1.51 1.51 0 00-1.29.69 6.08 6.08 0 00-.61 3.23z" transform="translate(-60.45 -7.57)"/></g><g class="cls-7"><path d="M207 155.17h-1.18v-7.5a6 6 0 01-1.11.81 7.94 7.94 0 01-1.24.61V148a7.11 7.11 0 001.73-1.12 4.43 4.43 0 001-1.28h.8v9.62zM210 150.44a8.76 8.76 0 01.35-2.74 3.4 3.4 0 011-1.6 2.66 2.66 0 011.74-.56 2.83 2.83 0 011.35.31 2.59 2.59 0 011 .9 4.82 4.82 0 01.59 1.42 9.47 9.47 0 01.22 2.26 8.8 8.8 0 01-.35 2.72 3.4 3.4 0 01-1 1.6 2.66 2.66 0 01-1.74.57 2.63 2.63 0 01-2.18-1 6.31 6.31 0 01-.98-3.88zm1.21 0a6 6 0 00.55 3.14 1.58 1.58 0 002.73 0 9.21 9.21 0 000-6.28 1.64 1.64 0 00-1.38-.78 1.51 1.51 0 00-1.29.69 6.08 6.08 0 00-.64 3.23zM217.41 150.44a8.76 8.76 0 01.35-2.74 3.4 3.4 0 011-1.6 2.66 2.66 0 011.74-.56 2.83 2.83 0 011.35.31 2.59 2.59 0 011 .9 4.82 4.82 0 01.59 1.42 9.47 9.47 0 01.22 2.26 8.8 8.8 0 01-.35 2.72 3.4 3.4 0 01-1 1.6 2.66 2.66 0 01-1.74.57 2.63 2.63 0 01-2.18-1 6.31 6.31 0 01-.98-3.88zm1.21 0a6 6 0 00.55 3.14 1.58 1.58 0 002.73 0 9.21 9.21 0 000-6.28 1.64 1.64 0 00-1.38-.78 1.51 1.51 0 00-1.29.69 6.08 6.08 0 00-.61 3.23zM224.86 150.44a8.76 8.76 0 01.35-2.74 3.4 3.4 0 011-1.6 2.66 2.66 0 011.74-.56 2.83 2.83 0 011.35.31 2.59 2.59 0 011 .9 4.82 4.82 0 01.59 1.42 9.47 9.47 0 01.22 2.26 8.8 8.8 0 01-.35 2.72 3.4 3.4 0 01-1 1.6 2.66 2.66 0 01-1.74.57 2.63 2.63 0 01-2.18-1 6.31 6.31 0 01-.98-3.88zm1.21 0a6 6 0 00.55 3.14 1.58 1.58 0 002.73 0 9.21 9.21 0 000-6.28 1.64 1.64 0 00-1.38-.78 1.51 1.51 0 00-1.29.69 6.08 6.08 0 00-.61 3.23zM232.63 155.17v-6.94h1.05v1a2.47 2.47 0 01.87-.82 2.44 2.44 0 011.23-.31 2.29 2.29 0 011.27.32 1.72 1.72 0 01.7.9 2.49 2.49 0 012.14-1.22 2.12 2.12 0 011.59.57 2.45 2.45 0 01.56 1.76v4.76h-1.17v-4.39a3.22 3.22 0 00-.11-1 1 1 0 00-.42-.5 1.29 1.29 0 00-.71-.19 1.64 1.64 0 00-1.22.49 2.14 2.14 0 00-.48 1.56v4h-1.18v-4.51a2 2 0 00-.29-1.18 1.09 1.09 0 00-.94-.39 1.71 1.71 0 00-.92.26 1.49 1.49 0 00-.61.76 4.31 4.31 0 00-.19 1.45v3.6h-1.18zM243.75 155.17v-9.58h1.18v9.58h-1.18z" transform="translate(-60.45 -7.57)"/></g></g></svg>